<?xml version="1.0" encoding="UTF-8"?><svg xmlns="http://www.w3.org/2000/svg" xmlns:xlink="http://www.w3.org/1999/xlink" fill-opacity="1" color-rendering="auto" color-interpolation="auto" text-rendering="auto" stroke="black" stroke-linecap="square" width="458" stroke-miterlimit="10" shape-rendering="auto" stroke-opacity="1" fill="black" stroke-dasharray="none" font-weight="normal" stroke-width="1" height="532" font-family="'Dialog'" font-style="normal" stroke-linejoin="miter" font-size="12" stroke-dashoffset="0" image-rendering="auto">
  <!--Generated by ySVG 2.5-->
  <defs id="genericDefs"/>
  <g>
    <defs id="defs1">
      <linearGradient x1="120" gradientUnits="userSpaceOnUse" x2="309" y1="115" y2="166" id="linearGradient1" spreadMethod="reflect">
        <stop stop-opacity="1" stop-color="rgb(232,238,247)" offset="0%"/>
        <stop stop-opacity="1" stop-color="rgb(183,201,227)" offset="100%"/>
      </linearGradient>
      <linearGradient x1="240" gradientUnits="userSpaceOnUse" x2="435" y1="363" y2="410" id="linearGradient2" spreadMethod="reflect">
        <stop stop-opacity="1" stop-color="rgb(232,238,247)" offset="0%"/>
        <stop stop-opacity="1" stop-color="rgb(183,201,227)" offset="100%"/>
      </linearGradient>
      <clipPath clipPathUnits="userSpaceOnUse" id="clipPath1">
        <path d="M0 0 L458 0 L458 532 L0 532 L0 0 Z"/>
      </clipPath>
      <clipPath clipPathUnits="userSpaceOnUse" id="clipPath2">
        <path d="M105 1 L563 1 L563 533 L105 533 L105 1 Z"/>
      </clipPath>
    </defs>
    <g fill="white" text-rendering="geometricPrecision" shape-rendering="geometricPrecision" transform="translate(-105,-1)" stroke="white">
      <rect x="105" width="458" height="532" y="1" clip-path="url(#clipPath2)" stroke="none"/>
    </g>
    <g fill="rgb(255,204,0)" text-rendering="geometricPrecision" shape-rendering="geometricPrecision" transform="matrix(1,0,0,1,-105,-1)" stroke="rgb(255,204,0)">
      <rect x="123" width="185" height="43" y="16" clip-path="url(#clipPath2)" stroke="none"/>
    </g>
    <g text-rendering="geometricPrecision" stroke-miterlimit="1.45" shape-rendering="geometricPrecision" font-family="sans-serif" transform="matrix(1,0,0,1,-105,-1)" stroke-linecap="butt">
      <text x="152.0986" xml:space="preserve" y="41.6543" clip-path="url(#clipPath2)" stroke="none">Fichier standard .dbc</text>
      <rect fill="none" x="123" width="185" height="43" y="16" clip-path="url(#clipPath2)"/>
    </g>
    <g fill="rgb(255,204,0)" text-rendering="geometricPrecision" shape-rendering="geometricPrecision" transform="matrix(1,0,0,1,-105,-1)" stroke="rgb(255,204,0)">
      <rect x="122" width="185" height="43" y="237" clip-path="url(#clipPath2)" stroke="none"/>
    </g>
    <g text-rendering="geometricPrecision" stroke-miterlimit="1.45" shape-rendering="geometricPrecision" font-family="sans-serif" transform="matrix(1,0,0,1,-105,-1)" stroke-linecap="butt">
      <text x="158.9326" xml:space="preserve" y="262.6543" clip-path="url(#clipPath2)" stroke="none">Configuration .xml</text>
      <rect fill="none" x="122" width="185" height="43" y="237" clip-path="url(#clipPath2)"/>
    </g>
    <g fill="rgb(255,204,0)" text-rendering="geometricPrecision" shape-rendering="geometricPrecision" transform="matrix(1,0,0,1,-105,-1)" stroke="rgb(255,204,0)">
      <rect x="244" width="185" height="43" y="475" clip-path="url(#clipPath2)" stroke="none"/>
    </g>
    <g text-rendering="geometricPrecision" stroke-miterlimit="1.45" shape-rendering="geometricPrecision" font-family="sans-serif" transform="matrix(1,0,0,1,-105,-1)" stroke-linecap="butt">
      <text x="284.3311" xml:space="preserve" y="500.6543" clip-path="url(#clipPath2)" stroke="none">Code source .c/.h</text>
      <rect fill="none" x="244" width="185" height="43" y="475" clip-path="url(#clipPath2)"/>
    </g>
    <g fill="rgb(255,204,0)" text-rendering="geometricPrecision" shape-rendering="geometricPrecision" transform="matrix(1,0,0,1,-105,-1)" stroke="rgb(255,204,0)">
      <rect x="363" width="185" height="43" y="238" clip-path="url(#clipPath2)" stroke="none"/>
    </g>
    <g text-rendering="geometricPrecision" stroke-miterlimit="1.45" shape-rendering="geometricPrecision" font-family="sans-serif" transform="matrix(1,0,0,1,-105,-1)" stroke-linecap="butt">
      <text x="412.2578" xml:space="preserve" y="263.6543" clip-path="url(#clipPath2)" stroke="none">Template .c/.h</text>
      <rect fill="none" x="363" width="185" height="43" y="238" clip-path="url(#clipPath2)"/>
    </g>
    <g fill="url(#linearGradient1)" text-rendering="geometricPrecision" shape-rendering="geometricPrecision" transform="matrix(1,0,0,1,-105,-1)" stroke="url(#linearGradient1)">
      <rect x="120" y="115" clip-path="url(#clipPath2)" width="189" rx="25.5" ry="25.5" height="51" stroke="none"/>
    </g>
    <g text-rendering="geometricPrecision" stroke-miterlimit="1.45" shape-rendering="geometricPrecision" transform="matrix(1,0,0,1,-105,-1)" stroke-linecap="butt">
      <rect x="120" y="115" clip-path="url(#clipPath2)" fill="none" width="189" rx="25.5" ry="25.5" height="51"/>
      <text x="184.7578" xml:space="preserve" y="137.6699" clip-path="url(#clipPath2)" font-family="sans-serif" stroke="none">CANBabel</text>
      <text x="136.5117" xml:space="preserve" y="151.6387" clip-path="url(#clipPath2)" font-family="sans-serif" stroke="none">Conversion .dbc vers .xml</text>
    </g>
    <g fill="url(#linearGradient2)" text-rendering="geometricPrecision" shape-rendering="geometricPrecision" transform="matrix(1,0,0,1,-105,-1)" stroke="url(#linearGradient2)">
      <rect x="240" y="363" clip-path="url(#clipPath2)" width="195" rx="23.5" ry="23.5" height="47" stroke="none"/>
    </g>
    <g text-rendering="geometricPrecision" stroke-miterlimit="1.45" shape-rendering="geometricPrecision" transform="matrix(1,0,0,1,-105,-1)" stroke-linecap="butt">
      <rect x="240" y="363" clip-path="url(#clipPath2)" fill="none" width="195" rx="23.5" ry="23.5" height="47"/>
      <text x="306.873" xml:space="preserve" y="383.6699" clip-path="url(#clipPath2)" font-family="sans-serif" stroke="none">XmlToCan</text>
      <text x="262.9482" xml:space="preserve" y="397.6387" clip-path="url(#clipPath2)" font-family="sans-serif" stroke="none">Conversion .xml ers .c/.h</text>
    </g>
    <g text-rendering="geometricPrecision" stroke-miterlimit="1.45" shape-rendering="geometricPrecision" transform="matrix(1,0,0,1,-105,-1)" stroke-linecap="butt">
      <path fill="none" d="M215.2913 59 L214.8253 106.9918" clip-path="url(#clipPath2)"/>
      <path d="M214.7477 114.9915 L219.8639 103.0406 L214.835 105.9919 L209.8644 102.9435 Z" clip-path="url(#clipPath2)" stroke="none"/>
      <path fill="none" d="M214.5 165.9956 L214.5 229" clip-path="url(#clipPath2)"/>
      <path d="M214.5 237 L219.5 225 L214.5 228 L209.5 225 Z" clip-path="url(#clipPath2)" stroke="none"/>
      <path fill="none" d="M235.1602 280 L309.3952 357.2527" clip-path="url(#clipPath2)"/>
      <path d="M314.9383 363.0211 L310.2289 350.9041 L308.7023 356.5317 L303.0184 357.8329 Z" clip-path="url(#clipPath2)" stroke="none"/>
      <path fill="none" d="M435.5236 281 L364.7949 357.1233" clip-path="url(#clipPath2)"/>
      <path d="M359.3495 362.984 L371.1805 357.5963 L365.4756 356.3907 L363.8546 350.7896 Z" clip-path="url(#clipPath2)" stroke="none"/>
      <path fill="none" d="M337.2864 409.9985 L336.7682 467.0003" clip-path="url(#clipPath2)"/>
      <path d="M336.6955 475 L341.8044 463.046 L336.7773 466.0004 L331.8047 462.955 Z" clip-path="url(#clipPath2)" stroke="none"/>
    </g>
  </g>
</svg>
