<?xml version="1.0" encoding="UTF-8" standalone="no"?>
<!DOCTYPE svg PUBLIC "-//W3C//DTD SVG 1.0//EN" "http://www.w3.org/TR/2001/PR-SVG-20010719/DTD/svg10.dtd">
<svg width="47cm" height="14cm" viewBox="44 169 921 273" xmlns="http://www.w3.org/2000/svg" xmlns:xlink="http://www.w3.org/1999/xlink">
  <g>
    <rect style="fill: #fffb9b" x="267.16" y="273.094" width="390.949" height="81.7369"/>
    <rect style="fill: none; fill-opacity:0; stroke-width: 2; stroke: #000000" x="267.16" y="273.094" width="390.949" height="81.7369"/>
    <text font-size="12.7998" style="fill: #000000;text-anchor:middle;font-family:sans-serif;font-style:normal;font-weight:normal" x="462.634" y="317.862">
      <tspan x="462.634" y="317.862"></tspan>
    </text>
  </g>
  <g>
    <rect style="fill: #f8ce6d" x="382.117" y="294.645" width="160.7" height="38"/>
    <rect style="fill: none; fill-opacity:0; stroke-width: 2; stroke: #000000" x="382.117" y="294.645" width="160.7" height="38"/>
    <text font-size="12.7998" style="fill: #000000;text-anchor:middle;font-family:sans-serif;font-style:normal;font-weight:normal" x="462.467" y="317.545">
      <tspan x="462.467" y="317.545">Corps de l'application</tspan>
    </text>
  </g>
  <g>
    <rect style="fill: #f8ce6d" x="287.378" y="295.29" width="81.3" height="38"/>
    <rect style="fill: none; fill-opacity:0; stroke-width: 2; stroke: #000000" x="287.378" y="295.29" width="81.3" height="38"/>
    <text font-size="12.7998" style="fill: #000000;text-anchor:middle;font-family:sans-serif;font-style:normal;font-weight:normal" x="328.028" y="318.19">
      <tspan x="328.028" y="318.19">Back end</tspan>
    </text>
  </g>
  <g>
    <rect style="fill: #f8ce6d" x="554.641" y="293.646" width="82.5" height="38"/>
    <rect style="fill: none; fill-opacity:0; stroke-width: 2; stroke: #000000" x="554.641" y="293.646" width="82.5" height="38"/>
    <text font-size="12.7998" style="fill: #000000;text-anchor:middle;font-family:sans-serif;font-style:normal;font-weight:normal" x="595.891" y="316.546">
      <tspan x="595.891" y="316.546">Front end</tspan>
    </text>
  </g>
  <g>
    <path style="fill: #ffffff" d="M 123.789 384.994 C 138.749,376.552 146.229,373.737 161.188,373.737 C 176.147,373.737 183.627,376.552 198.586,384.994 L 198.586,430.024 C 183.627,438.467 176.147,441.281 161.188,441.281 C 146.229,441.281 138.749,438.467 123.789,430.024 L 123.789,384.994z"/>
    <path style="fill: none; fill-opacity:0; stroke-width: 2; stroke: #000000" d="M 123.789 384.994 C 138.749,376.552 146.229,373.737 161.188,373.737 C 176.147,373.737 183.627,376.552 198.586,384.994 L 198.586,430.024 C 183.627,438.467 176.147,441.281 161.188,441.281 C 146.229,441.281 138.749,438.467 123.789,430.024 L 123.789,384.994"/>
    <path style="fill: none; fill-opacity:0; stroke-width: 2; stroke: #000000" d="M 123.789 384.994 C 138.749,393.437 146.229,396.252 161.188,396.252 C 176.147,396.252 183.627,393.437 198.586,384.994"/>
    <text font-size="12.7998" style="fill: #000000;text-anchor:middle;font-family:sans-serif;font-style:normal;font-weight:normal" x="161.188" y="417.138">
      <tspan x="161.188" y="417.138">BDD</tspan>
    </text>
  </g>
  <g>
    <path style="fill: #e6e6e6" d="M 57.8991 277.684 C 57.8991,262.105 57.8991,262.105 70.3371,262.105 C 82.775,262.105 82.775,262.105 95.213,262.105 C 107.651,262.105 107.651,262.105 107.651,277.684 C 107.651,277.684 144.965,277.684 144.965,277.684 C 144.965,277.684 144.965,340.002 144.965,340.002 C 144.965,340.002 57.8991,340.002 57.8991,340.002 C 57.8991,340.002 57.8991,293.264 57.8991,277.684z"/>
    <path style="fill: none; fill-opacity:0; stroke-width: 2; stroke: #000000" d="M 57.8991 277.684 C 57.8991,262.105 57.8991,262.105 70.3371,262.105 C 82.775,262.105 82.775,262.105 95.213,262.105 C 107.651,262.105 107.651,262.105 107.651,277.684 C 107.651,277.684 144.965,277.684 144.965,277.684 C 144.965,277.684 144.965,340.002 144.965,340.002 C 144.965,340.002 57.8991,340.002 57.8991,340.002 C 57.8991,340.002 57.8991,293.264 57.8991,277.684"/>
    <path style="fill: none; fill-opacity:0; stroke-width: 0.2; stroke: #000000" d="M 57.8991 277.684 C 57.8991,262.105 57.8991,262.105 70.3371,262.105 C 82.775,262.105 82.775,262.105 95.213,262.105 C 107.651,262.105 107.651,262.105 107.651,277.684 C 107.651,277.684 144.965,277.684 144.965,277.684 C 144.965,277.684 144.965,340.002 144.965,340.002 C 144.965,340.002 57.8991,340.002 57.8991,340.002 C 57.8991,340.002 57.8991,293.264 57.8991,277.684"/>
    <polygon style="fill: #ffffff" points="57.8991,340.002 45.4611,285.474 132.527,285.474 144.965,340.002 "/>
    <polygon style="fill: none; fill-opacity:0; stroke-width: 2; stroke: #000000" points="57.8991,340.002 45.4611,285.474 132.527,285.474 144.965,340.002 "/>
    <polygon style="fill: none; fill-opacity:0; stroke-width: 0.2; stroke: #000000" points="57.8991,340.002 45.4611,285.474 132.527,285.474 144.965,340.002 "/>
    <text font-size="12.7998" style="fill: #000000;text-anchor:middle;font-family:sans-serif;font-style:normal;font-weight:normal" x="95.213" y="300.948">
      <tspan x="95.213" y="300.948">Système</tspan>
      <tspan x="95.213" y="316.948">de fichiers</tspan>
    </text>
  </g>
  <g>
    <path style="fill: #b7b79d" d="M 749.325 247.659 L 818.498,247.659 L 818.498,260.443 L 749.325,260.443 L 749.325,247.659z"/>
    <path style="fill: none; fill-opacity:0; stroke-width: 0.02; stroke: #494936" d="M 749.325 247.659 L 818.498,247.659 L 818.498,260.443 L 749.325,260.443 L 749.325,247.659"/>
    <path style="fill: #c9c9b6" d="M 749.325 247.659 L 756.66,240.705 L 825.832,240.705 L 818.498,247.659 L 749.325,247.659z"/>
    <path style="fill: none; fill-opacity:0; stroke-width: 0.02; stroke: #494936" d="M 749.325 247.659 L 756.66,240.705 L 825.832,240.705 L 818.498,247.659 L 749.325,247.659"/>
    <path style="fill: none; fill-opacity:0; stroke-width: 2.12; stroke: #000000" d="M 814.629 253.479 L 798.03,253.479"/>
    <path style="fill: #7a7a5a" d="M 818.498 260.443 L 825.832,253.086 L 825.832,240.705 L 818.498,247.659 L 818.498,260.443z"/>
    <path style="fill: none; fill-opacity:0; stroke-width: 0.02; stroke: #494936" d="M 818.498 260.443 L 825.832,253.086 L 825.832,240.705 L 818.498,247.659 L 818.498,260.443"/>
    <path style="fill: #c9c9b6" d="M 749.717 268.551 L 757.434,258.884 L 810.771,258.884 L 803.055,268.551 L 749.717,268.551z"/>
    <path style="fill: none; fill-opacity:0; stroke-width: 0.02; stroke: #494936" d="M 749.717 268.551 L 757.434,258.884 L 810.771,258.884 L 803.055,268.551 L 749.717,268.551"/>
    <path style="fill: #7a7a5a" d="M 803.055 270.48 L 810.771,262.372 L 810.771,258.884 L 803.055,268.551 L 803.055,270.48z"/>
    <path style="fill: none; fill-opacity:0; stroke-width: 0.02; stroke: #494936" d="M 803.055 270.48 L 810.771,262.372 L 810.771,258.884 L 803.055,268.551 L 803.055,270.48"/>
    <path style="fill: #b7b79d" d="M 749.717 268.551 L 803.055,268.551 L 803.055,270.48 L 749.717,270.48 L 749.717,268.551z"/>
    <path style="fill: none; fill-opacity:0; stroke-width: 0.02; stroke: #494936" d="M 749.717 268.551 L 803.055,268.551 L 803.055,270.48 L 749.717,270.48 L 749.717,268.551"/>
    <path style="fill: #000000" d="M 759.755 246.122 L 765.564,240.705 L 814.629,240.705 L 809.234,246.122 L 759.755,246.122z"/>
    <path style="fill: none; fill-opacity:0; stroke-width: 0.02; stroke: #000000" d="M 759.755 246.122 L 765.564,240.705 L 814.629,240.705 L 809.234,246.122 L 759.755,246.122"/>
    <path style="fill: #c9c9b6" d="M 759.363 206.277 L 764.79,201.253 L 813.877,201.253 L 808.449,206.277 L 759.363,206.277z"/>
    <path style="fill: none; fill-opacity:0; stroke-width: 0.02; stroke: #494936" d="M 759.363 206.277 L 764.79,201.253 L 813.877,201.253 L 808.449,206.277 L 759.363,206.277"/>
    <path style="fill: #b7b79d" d="M 759.363 206.277 L 808.842,206.277 L 808.842,245.337 L 759.363,245.337 L 759.363,206.277z"/>
    <path style="fill: none; fill-opacity:0; stroke-width: 0.02; stroke: #494936" d="M 759.363 206.277 L 808.82,206.277 L 808.82,245.326 L 759.363,245.326 L 759.363,206.277"/>
    <path style="fill: #ffffff" d="M 763.613 211.29 L 804.58,211.29 L 804.58,241.468 L 763.613,241.468 L 763.613,211.29z"/>
    <path style="fill: none; fill-opacity:0; stroke-width: 0.02; stroke: #494936" d="M 763.613 211.29 L 804.58,211.29 L 804.58,241.457 L 763.613,241.457 L 763.613,211.29"/>
    <path style="fill: #7a7a5a" d="M 808.449 244.967 L 813.877,239.55 L 813.877,201.253 L 808.449,206.277 L 808.449,244.967z"/>
    <path style="fill: none; fill-opacity:0; stroke-width: 0.02; stroke: #494936" d="M 808.449 244.967 L 813.877,239.55 L 813.877,201.253 L 808.449,206.277 L 808.449,244.967"/>
  </g>
  <g>
    <path style="fill: #c9c9b6" d="M 810.554 318.375 L 857.586,318.375 L 837.811,338.217 L 790.779,338.217 L 810.554,318.375z"/>
    <path style="fill: none; fill-opacity:0; stroke-width: 0.02; stroke: #494936" d="M 810.554 318.375 L 857.586,318.375 L 837.811,338.217 L 790.779,338.217 L 810.554,318.375"/>
    <path style="fill: none; fill-opacity:0; stroke-width: 0.02; stroke: #dbdbce" d="M 812.36 334.865 L 812.36,334.971 L 812.379,335.057 L 812.408,335.172 L 812.446,335.288 L 812.504,335.374 L 812.571,335.48 L 812.658,335.576 L 812.744,335.662 L 812.83,335.768 L 812.946,335.873 L 813.061,335.96 L 813.186,336.037 L 813.33,336.114 L 813.464,336.2 L 813.637,336.267 L 813.791,336.354 L 813.964,336.421 L 814.156,336.488 L 814.348,336.546 L 814.53,336.603 L 814.732,336.661 L 814.934,336.719 L 815.145,336.747 L 815.376,336.786 L 815.596,336.805 L 815.827,336.843 L 816.038,336.872 L 816.278,336.901 L 816.518,336.911 L 816.749,336.92 L 816.979,336.92"/>
    <path style="fill: none; fill-opacity:0; stroke-width: 0.02; stroke: #dbdbce" d="M 816.47 336.92 L 816.701,336.92 L 816.922,336.911 L 817.143,336.891 L 817.373,336.863 L 817.604,336.843 L 817.815,336.805 L 818.026,336.786 L 818.247,336.738 L 818.449,336.69 L 818.66,336.632 L 818.843,336.575 L 819.035,336.517 L 819.217,336.45 L 819.39,336.382 L 819.544,336.315 L 819.707,336.238 L 819.861,336.152 L 819.995,336.075 L 820.13,335.979 L 820.245,335.883 L 820.351,335.787 L 820.437,335.701 L 820.533,335.595 L 820.61,335.489 L 820.667,335.403 L 820.735,335.297 L 820.763,335.172 L 820.792,335.067 L 820.821,334.971 L 820.831,334.865"/>
    <path style="fill: none; fill-opacity:0; stroke-width: 0.02; stroke: #dbdbce" d="M 817.488 331.014 L 817.248,331.014 L 817.018,331.023 L 816.778,331.023 L 816.566,331.043 L 816.336,331.071 L 816.105,331.091 L 815.885,331.11 L 815.654,331.158 L 815.452,331.196 L 815.251,331.225 L 815.049,331.273 L 814.847,331.331 L 814.665,331.379 L 814.492,331.436 L 814.319,331.513 L 814.127,331.571 L 813.993,331.638 L 813.839,331.696 L 813.695,331.772 L 813.58,331.859 L 813.455,331.936 L 813.349,332.003 L 813.243,332.089 L 813.167,332.176 L 813.09,332.272 L 813.013,332.358 L 812.975,332.435 L 812.927,332.531 L 812.898,332.608 L 812.888,332.714 L 812.878,332.79"/>
    <path style="fill: none; fill-opacity:0; stroke-width: 0.02; stroke: #dbdbce" d="M 821.33 332.79 L 821.33,332.704 L 821.321,332.608 L 821.282,332.522 L 821.244,332.416 L 821.196,332.339 L 821.119,332.233 L 821.042,332.157 L 820.965,332.061 L 820.85,331.993 L 820.763,331.897 L 820.648,331.82 L 820.495,331.753 L 820.37,331.657 L 820.226,331.609 L 820.072,331.532 L 819.899,331.456 L 819.717,331.398 L 819.534,331.34 L 819.352,331.292 L 819.16,331.254 L 818.958,331.206 L 818.747,331.158 L 818.545,331.129 L 818.334,331.091 L 818.122,331.071 L 817.901,331.043 L 817.671,331.023 L 817.431,331.023 L 817.2,331.014 L 816.979,331.014"/>
    <path style="fill: #a5a585" d="M 790.779 340.272 L 837.811,340.272 L 837.811,338.217 L 790.779,338.217 L 790.779,340.272z"/>
    <path style="fill: none; fill-opacity:0; stroke-width: 0.02; stroke: #494936" d="M 790.779 340.272 L 837.811,340.272 L 837.811,338.217 L 790.779,338.217 L 790.779,340.272"/>
    <path style="fill: #a5a585" d="M 810.554 318.375 L 857.586,318.375 L 857.586,286.201 L 810.554,286.201 L 810.554,318.375z"/>
    <path style="fill: none; fill-opacity:0; stroke-width: 0.02; stroke: #494936" d="M 810.554 318.375 L 857.586,318.375 L 857.586,286.201 L 810.554,286.201 L 810.554,318.375"/>
    <path style="fill: #7a7a5a" d="M 858.873 317.107 L 858.873,284.933 L 857.586,286.201 L 857.586,318.375 L 858.873,317.107z"/>
    <path style="fill: none; fill-opacity:0; stroke-width: 0.02; stroke: #494936" d="M 858.873 317.107 L 858.873,284.933 L 857.586,286.201 L 857.586,318.375 L 858.873,317.107"/>
    <path style="fill: #ffffff" d="M 812.878 316.329 L 855.281,316.329 L 855.281,288.784 L 812.878,288.784 L 812.878,316.329z"/>
    <path style="fill: none; fill-opacity:0; stroke-width: 0.02; stroke: #494936" d="M 812.878 316.329 L 855.281,316.329 L 855.281,288.784 L 812.878,288.784 L 812.878,316.329"/>
    <path style="fill: #93936c" d="M 812.878 319.931 L 852.438,319.931 L 842.161,330.236 L 802.602,330.236 L 812.878,319.931z"/>
    <path style="fill: none; fill-opacity:0; stroke-width: 0.02; stroke: #494936" d="M 812.878 319.931 L 852.438,319.931 L 842.161,330.236 L 802.602,330.236 L 812.878,319.931"/>
    <path style="fill: #7a7a5a" d="M 819.035 334.212 L 819.035,334.154 L 819.025,334.097 L 819.016,334.039 L 818.987,333.972 L 818.977,333.914 L 818.939,333.866 L 818.919,333.809 L 818.871,333.77 L 818.823,333.712 L 818.795,333.655 L 818.747,333.607 L 818.689,333.559 L 818.631,333.501 L 818.564,333.453 L 818.507,333.424 L 818.439,333.376 L 818.362,333.338 L 818.276,333.309 L 818.209,333.261 L 818.122,333.242 L 818.036,333.203 L 817.959,333.184 L 817.863,333.155 L 817.777,333.136 L 817.671,333.117 L 817.585,333.088 L 817.488,333.079 L 817.402,333.079 L 817.306,333.069 L 817.191,333.069 L 817.114,333.069 L 817.114,333.069 L 817.008,333.069 L 816.903,333.069 L 816.816,333.079 L 816.72,333.079 L 816.634,333.088 L 816.528,333.117 L 816.442,333.136 L 816.346,333.155 L 816.259,333.184 L 816.173,333.203 L 816.096,333.242 L 816,333.261 L 815.933,333.309 L 815.856,333.338 L 815.779,333.376 L 815.712,333.424 L 815.654,333.453 L 815.587,333.501 L 815.529,333.559 L 815.481,333.607 L 815.414,333.655 L 815.385,333.712 L 815.328,333.77 L 815.299,333.809 L 815.27,333.866 L 815.241,333.914 L 815.222,333.972 L 815.212,334.039 L 815.193,334.097 L 815.174,334.154 L 815.174,334.212 L 815.174,334.212 L 815.174,334.279 L 815.193,334.337 L 815.212,334.394 L 815.222,334.452 L 815.241,334.51 L 815.27,334.558 L 815.299,334.625 L 815.328,334.673 L 815.385,334.731 L 815.414,334.769 L 815.481,334.827 L 815.529,334.875 L 815.587,334.932 L 815.654,334.971 L 815.712,335.009 L 815.779,335.057 L 815.856,335.095 L 815.933,335.124 L 816,335.172 L 816.096,335.192 L 816.173,335.23 L 816.259,335.249 L 816.346,335.278 L 816.442,335.297 L 816.528,335.316 L 816.634,335.336 L 816.72,335.355 L 816.816,335.355 L 816.903,335.355 L 817.008,335.364 L 817.114,335.364 L 817.114,335.364 L 817.191,335.364 L 817.306,335.355 L 817.402,335.355 L 817.488,335.355 L 817.585,335.336 L 817.671,335.316 L 817.777,335.297 L 817.863,335.278 L 817.959,335.249 L 818.036,335.23 L 818.122,335.192 L 818.209,335.172 L 818.276,335.124 L 818.362,335.095 L 818.439,335.057 L 818.507,335.009 L 818.564,334.971 L 818.631,334.932 L 818.689,334.875 L 818.747,334.827 L 818.795,334.769 L 818.823,334.731 L 818.871,334.673 L 818.919,334.625 L 818.939,334.558 L 818.977,334.51 L 818.987,334.452 L 819.016,334.394 L 819.025,334.337 L 819.035,334.279 L 819.035,334.212z"/>
    <path style="fill: none; fill-opacity:0; stroke-width: 0.02; stroke: #dbdbce" d="M 818.785 334.097 L 818.785,334.039 L 818.775,333.981 L 818.775,333.933 L 818.747,333.895 L 818.727,333.818 L 818.718,333.789 L 818.67,333.732 L 818.631,333.674 L 818.603,333.636 L 818.564,333.597 L 818.507,333.559 L 818.458,333.492 L 818.401,333.453 L 818.343,333.424 L 818.295,333.376 L 818.218,333.338 L 818.161,333.319 L 818.094,333.271 L 818.026,333.251 L 817.94,333.213 L 817.863,333.194 L 817.777,333.175 L 817.7,333.146 L 817.613,333.127 L 817.527,333.117 L 817.431,333.088 L 817.354,333.079 L 817.248,333.069 L 817.172,333.069 L 817.075,333.069 L 816.989,333.069 L 816.989,333.069 L 816.893,333.069 L 816.807,333.069 L 816.711,333.069 L 816.634,333.079 L 816.538,333.088 L 816.461,333.117 L 816.355,333.127 L 816.278,333.146 L 816.211,333.175 L 816.115,333.194 L 816.038,333.213 L 815.942,333.251 L 815.894,333.271 L 815.808,333.319 L 815.75,333.338 L 815.683,333.376 L 815.625,333.424 L 815.568,333.453 L 815.51,333.492 L 815.462,333.559 L 815.414,333.597 L 815.376,333.636 L 815.328,333.674 L 815.308,333.732 L 815.27,333.789 L 815.251,333.818 L 815.231,333.895 L 815.212,333.933 L 815.203,333.981 L 815.193,334.039 L 815.193,334.097 L 815.193,334.097 L 815.193,334.145 L 815.203,334.202 L 815.212,334.26 L 815.231,334.289 L 815.251,334.346 L 815.27,334.404 L 815.308,334.452 L 815.328,334.5 L 815.376,334.558 L 815.414,334.586 L 815.462,334.634 L 815.51,334.683 L 815.568,334.731 L 815.625,334.759 L 815.683,334.807 L 815.75,334.836 L 815.808,334.875 L 815.894,334.913 L 815.942,334.932 L 816.038,334.971 L 816.115,334.999 L 816.211,335.009 L 816.278,335.038 L 816.355,335.057 L 816.461,335.067 L 816.538,335.095 L 816.634,335.115 L 816.711,335.115 L 816.807,335.115 L 816.893,335.115 L 816.989,335.115 L 816.989,335.115 L 817.075,335.115 L 817.172,335.115 L 817.248,335.115 L 817.354,335.115 L 817.431,335.095 L 817.527,335.067 L 817.613,335.057 L 817.7,335.038 L 817.777,335.009 L 817.863,334.999 L 817.94,334.971 L 818.026,334.932 L 818.094,334.913 L 818.161,334.875 L 818.218,334.836 L 818.295,334.807 L 818.343,334.759 L 818.401,334.731 L 818.458,334.683 L 818.507,334.634 L 818.564,334.586 L 818.603,334.558 L 818.631,334.5 L 818.67,334.452 L 818.718,334.404 L 818.727,334.346 L 818.747,334.289 L 818.775,334.26 L 818.775,334.202 L 818.785,334.145 L 818.785,334.097"/>
    <path style="fill: none; fill-opacity:0; stroke-width: 0.02; stroke: #626248" d="M 812.629 335.115 L 812.629,335.23 L 812.648,335.316 L 812.686,335.422 L 812.715,335.537 L 812.773,335.633 L 812.83,335.72 L 812.917,335.825 L 813.003,335.931 L 813.099,336.017 L 813.195,336.114 L 813.32,336.2 L 813.436,336.296 L 813.589,336.373 L 813.733,336.45 L 813.887,336.517 L 814.05,336.603 L 814.233,336.671 L 814.396,336.738 L 814.607,336.795 L 814.799,336.853 L 815.001,336.92 L 815.203,336.968 L 815.414,336.997 L 815.625,337.036 L 815.856,337.074 L 816.077,337.093 L 816.298,337.132 L 816.528,337.151 L 816.768,337.16 L 816.999,337.16 L 817.229,337.16"/>
    <path style="fill: none; fill-opacity:0; stroke-width: 0.02; stroke: #626248" d="M 816.711 337.16 L 816.951,337.16 L 817.172,337.16 L 817.412,337.141 L 817.623,337.112 L 817.844,337.093 L 818.074,337.074 L 818.276,337.036 L 818.497,336.988 L 818.689,336.939 L 818.9,336.901 L 819.102,336.843 L 819.284,336.786 L 819.467,336.719 L 819.64,336.632 L 819.813,336.565 L 819.957,336.488 L 820.11,336.411 L 820.245,336.315 L 820.37,336.238 L 820.495,336.133 L 820.6,336.056 L 820.706,335.96 L 820.792,335.845 L 820.85,335.739 L 820.936,335.653 L 820.975,335.537 L 821.023,335.432 L 821.061,335.316 L 821.061,335.23 L 821.08,335.115"/>
    <path style="fill: none; fill-opacity:0; stroke-width: 0.02; stroke: #626248" d="M 817.738 331.263 L 817.517,331.263 L 817.287,331.273 L 817.056,331.273 L 816.826,331.292 L 816.586,331.321 L 816.355,331.331 L 816.153,331.369 L 815.923,331.398 L 815.712,331.456 L 815.51,331.475 L 815.308,331.532 L 815.116,331.571 L 814.924,331.638 L 814.751,331.696 L 814.578,331.753 L 814.396,331.811 L 814.252,331.878 L 814.098,331.945 L 813.964,332.032 L 813.839,332.109 L 813.724,332.176 L 813.608,332.272 L 813.493,332.339 L 813.426,332.416 L 813.349,332.522 L 813.282,332.598 L 813.224,332.694 L 813.186,332.771 L 813.157,332.858 L 813.147,332.963 L 813.138,333.059"/>
    <path style="fill: none; fill-opacity:0; stroke-width: 0.02; stroke: #626248" d="M 821.599 333.059 L 821.58,332.954 L 821.57,332.858 L 821.551,332.771 L 821.503,332.675 L 821.445,332.589 L 821.378,332.493 L 821.301,332.416 L 821.215,332.329 L 821.119,332.233 L 821.004,332.157 L 820.888,332.07 L 820.763,331.993 L 820.61,331.926 L 820.475,331.859 L 820.312,331.792 L 820.158,331.715 L 819.986,331.657 L 819.803,331.609 L 819.601,331.552 L 819.409,331.513 L 819.217,331.456 L 819.016,331.417 L 818.804,331.379 L 818.574,331.34 L 818.372,331.321 L 818.151,331.292 L 817.921,331.273 L 817.681,331.273 L 817.469,331.263 L 817.229,331.263"/>
    <path style="fill: #7a7a5a" d="M 857.586 320.18 L 837.811,340.022 L 837.811,338.217 L 857.586,318.375 L 857.586,320.18z"/>
    <path style="fill: none; fill-opacity:0; stroke-width: 0.02; stroke: #494936" d="M 857.586 320.18 L 837.811,340.022 L 837.811,338.217 L 857.586,318.375 L 857.586,320.18"/>
    <path style="fill: #7a7a5a" d="M 850.911 316.857 L 850.911,317.347 L 854.762,317.347 L 854.762,316.857 L 850.911,316.857z"/>
    <path style="fill: none; fill-opacity:0; stroke-width: 0.02; stroke: #494936" d="M 850.911 316.857 L 850.911,317.347 L 854.762,317.347 L 854.762,316.857 L 850.911,316.857"/>
    <path style="fill: none; fill-opacity:0; stroke-width: 0.02; stroke: #000000" d="M 849.854 322.504 L 810.554,322.504"/>
    <path style="fill: none; fill-opacity:0; stroke-width: 0.02; stroke: #000000" d="M 847.3 325.088 L 808,325.088"/>
    <path style="fill: none; fill-opacity:0; stroke-width: 0.02; stroke: #000000" d="M 844.735 327.662 L 805.426,327.662"/>
    <path style="fill: #c9c9b6" d="M 811.841 284.933 L 858.873,284.933 L 857.586,286.201 L 810.554,286.201 L 811.841,284.933z"/>
    <path style="fill: none; fill-opacity:0; stroke-width: 0.02; stroke: #494936" d="M 811.841 284.933 L 858.873,284.933 L 857.586,286.201 L 810.554,286.201 L 811.841,284.933"/>
  </g>
  <g>
    <path style="fill: #e4b070" d="M 753.495 400.913 L 754.359,406.958 L 756.989,411.255 L 760.483,413.561 L 763.103,414.138 L 766.597,414.426 L 770.397,408.39 L 770.397,387.382 L 763.409,391.426 L 753.495,400.913z"/>
    <path style="fill: #e4b070" d="M 787.579 376.175 L 796.035,373.589 L 800.996,373.31 L 802.726,373.589 L 805.05,375.319 L 806.229,376.175 L 807.102,378.201 L 806.229,379.905 L 804.473,380.202 L 801.564,380.202 L 800.996,378.481 L 799.511,378.481 L 794.864,379.346 L 793.397,379.905 L 787.579,376.175z"/>
    <path style="fill: #e4b070" d="M 787.579 376.175 L 796.035,373.589 L 800.996,373.31 L 802.726,373.589 L 805.05,375.319 L 806.229,376.175 L 807.102,378.201 L 806.229,379.905 L 804.473,380.202 L 801.564,380.202 L 800.996,378.481 L 799.511,378.481 L 794.864,379.346 L 793.397,379.905 L 787.579,376.175z"/>
    <path style="fill: none; fill-opacity:0; stroke-width: 0.02; stroke: #000000" d="M 787.579 376.175 L 796.035,373.589 L 800.996,373.31 L 802.726,373.589 L 805.05,375.319 L 806.229,376.175 L 807.102,378.201 L 806.229,379.905 L 804.473,380.202 L 801.564,380.202 L 800.996,378.481 L 799.511,378.481 L 794.864,379.346 L 793.397,379.905"/>
    <path style="fill: #e4b070" d="M 768.93 385.382 L 787.282,383.661 L 799.232,383.076 L 803.608,382.499 L 805.05,382.499 L 805.923,383.949 L 805.626,385.102 L 804.77,386.535 L 802.438,387.111 L 798.367,387.967 L 794,390.273 L 791.065,392.571 L 784.95,398.327 L 779.421,403.49 L 775.918,404.354 L 766.021,414.426 L 768.93,385.382z"/>
    <path style="fill: #e4b070" d="M 768.93 385.382 L 787.282,383.661 L 799.232,383.076 L 803.608,382.499 L 805.05,382.499 L 805.923,383.949 L 805.626,385.102 L 804.77,386.535 L 802.438,387.111 L 798.367,387.967 L 794,390.273 L 791.065,392.571 L 784.95,398.327 L 779.421,403.49 L 775.918,404.354 L 766.021,414.426 L 768.93,385.382z"/>
    <path style="fill: none; fill-opacity:0; stroke-width: 0.02; stroke: #000000" d="M 768.93 385.382 L 787.282,383.661 L 799.232,383.076 L 803.608,382.499 L 805.05,382.499 L 805.923,383.949 L 805.626,385.102 L 804.77,386.535 L 802.438,387.111 L 798.367,387.967 L 794,390.273 L 791.065,392.571 L 784.95,398.327 L 779.421,403.49 L 775.918,404.354 L 766.021,414.426"/>
    <path style="fill: #e4b070" d="M 774.765 377.625 L 779.132,371.301 L 783.788,367.265 L 788.741,364.959 L 793.397,364.391 L 798.926,364.103 L 801.276,365.256 L 801.276,366.688 L 800.996,367.841 L 798.367,368.706 L 796.62,369.274 L 792.812,370.427 L 771.838,390.273 L 774.765,377.625z"/>
    <path style="fill: #e4b070" d="M 774.765 377.625 L 779.132,371.301 L 783.788,367.265 L 788.741,364.959 L 793.397,364.391 L 798.926,364.103 L 801.276,365.256 L 801.276,366.688 L 800.996,367.841 L 798.367,368.706 L 796.62,369.274 L 792.812,370.427 L 771.838,390.273 L 774.765,377.625z"/>
    <path style="fill: none; fill-opacity:0; stroke-width: 0.02; stroke: #000000" d="M 774.765 377.625 L 779.132,371.301 L 783.788,367.265 L 788.741,364.959 L 793.397,364.391 L 798.76,364.112"/>
    <path style="fill: none; fill-opacity:0; stroke-width: 0.02; stroke: #000000" d="M 798.952 364.112 L 801.276,365.256 L 801.276,366.688 L 800.996,367.841 L 798.367,368.706 L 796.62,369.274 L 792.812,370.427 L 771.838,390.273"/>
    <path style="fill: #e4b070" d="M 753.783 400.616 L 762.824,392.003 L 763.689,385.67 L 765.724,383.076 L 768.056,379.905 L 769.524,377.048 L 770.965,373.886 L 772.712,371.58 L 774.179,368.986 L 775.332,369.571 L 776.512,371.58 L 776.8,374.742 L 775.918,377.048 L 775.053,379.057 L 775.053,381.075 L 775.053,383.076 L 775.638,385.958 L 776.8,388.841 L 753.783,400.616z"/>
    <path style="fill: #e4b070" d="M 753.783 400.616 L 762.824,392.003 L 763.689,385.67 L 765.724,383.076 L 768.056,379.905 L 769.524,377.048 L 770.965,373.886 L 772.712,371.58 L 774.179,368.986 L 775.332,369.571 L 776.512,371.58 L 776.8,374.742 L 775.918,377.048 L 775.053,379.057 L 775.053,381.075 L 775.053,383.076 L 775.638,385.958 L 776.8,388.841 L 753.783,400.616z"/>
    <path style="fill: none; fill-opacity:0; stroke-width: 0.02; stroke: #000000" d="M 753.783 400.616 L 762.824,392.003 L 763.689,385.67 L 765.724,383.076 L 768.056,379.905 L 769.524,377.048 L 770.965,373.886 L 772.712,371.58 L 774.179,368.986 L 775.332,369.571 L 776.512,371.58 L 776.8,374.742 L 775.918,377.048 L 775.053,379.057 L 775.053,381.075 L 775.053,383.076 L 775.638,385.958 L 776.8,388.841"/>
    <path style="fill: #888888" d="M 769.812 385.67 L 793.694,385.67 L 808.552,367.265 L 785.823,367.265 L 769.812,385.67z"/>
    <path style="fill: none; fill-opacity:0; stroke-width: 0.02; stroke: #000000" d="M 769.812 385.67 L 793.694,385.67 L 808.509,367.326"/>
    <path style="fill: none; fill-opacity:0; stroke-width: 0.02; stroke: #000000" d="M 808.509 367.265 L 785.823,367.265 L 769.812,385.67"/>
    <path style="fill: #777777" d="M 769.812 385.67 L 769.812,390.273 L 793.694,390.273 L 793.694,385.67 L 769.812,385.67z"/>
    <path style="fill: none; fill-opacity:0; stroke-width: 0.02; stroke: #000000" d="M 769.812 385.67 L 769.812,390.273 L 793.694,390.273 L 793.694,385.67 L 769.812,385.67"/>
    <path style="fill: #555555" d="M 808.552 367.265 L 808.552,371.58 L 793.694,390.273 L 793.694,385.67 L 808.552,367.265z"/>
    <path style="fill: none; fill-opacity:0; stroke-width: 0.02; stroke: #000000" d="M 808.509 371.641 L 793.694,390.273 L 793.694,385.67 L 808.509,367.326"/>
    <path style="fill: #e7ecec" d="M 786.697 368.986 L 804.473,368.986 L 794,382.22 L 775.332,382.22 L 786.697,368.986z"/>
    <path style="fill: none; fill-opacity:0; stroke-width: 0.02; stroke: #444444" d="M 786.697 368.986 L 804.473,368.986 L 794,382.22 L 775.332,382.22 L 786.697,368.986"/>
    <path style="fill: #bbbbbb" d="M 774.459 383.076 L 776.8,383.076 L 775.332,384.805 L 773.009,384.805 L 774.459,383.076z"/>
    <path style="fill: none; fill-opacity:0; stroke-width: 0.02; stroke: #222222" d="M 774.459 383.076 L 776.8,383.076 L 775.332,384.805 L 773.009,384.805 L 774.459,383.076"/>
    <path style="fill: #bbbbbb" d="M 778.53 383.076 L 780.879,383.076 L 779.421,384.805 L 777.08,384.805 L 778.53,383.076z"/>
    <path style="fill: none; fill-opacity:0; stroke-width: 0.02; stroke: #222222" d="M 778.53 383.076 L 780.879,383.076 L 779.421,384.805 L 777.08,384.805 L 778.53,383.076"/>
    <path style="fill: #bbbbbb" d="M 782.635 383.076 L 784.95,383.076 L 783.788,384.805 L 781.168,384.805 L 782.635,383.076z"/>
    <path style="fill: none; fill-opacity:0; stroke-width: 0.02; stroke: #222222" d="M 782.635 383.076 L 784.95,383.076 L 783.788,384.805 L 781.168,384.805 L 782.635,383.076"/>
    <path style="fill: #bbbbbb" d="M 786.697 383.076 L 789.029,383.076 L 787.876,384.805 L 785.526,384.805 L 786.697,383.076z"/>
    <path style="fill: none; fill-opacity:0; stroke-width: 0.02; stroke: #222222" d="M 786.697 383.076 L 789.029,383.076 L 787.876,384.805 L 785.526,384.805 L 786.697,383.076"/>
    <path style="fill: #bbbbbb" d="M 791.065 383.076 L 793.397,383.076 L 791.938,384.805 L 789.623,384.805 L 791.065,383.076z"/>
    <path style="fill: none; fill-opacity:0; stroke-width: 0.02; stroke: #222222" d="M 791.065 383.076 L 793.397,383.076 L 791.938,384.805 L 789.623,384.805 L 791.065,383.076"/>
  </g>
  <g>
    <line style="fill: none; fill-opacity:0; stroke-width: 2; stroke: #000000" x1="647.285" y1="293.809" x2="740.168" y2="259.765"/>
    <polygon style="fill: #000000" points="640.244,296.39 647.912,288.254 647.285,293.809 651.353,297.643 "/>
    <polygon style="fill: none; fill-opacity:0; stroke-width: 2; stroke: #000000" points="640.244,296.39 647.912,288.254 647.285,293.809 651.353,297.643 "/>
    <polygon style="fill: #000000" points="747.21,257.184 739.541,265.32 740.168,259.765 736.1,255.931 "/>
    <polygon style="fill: none; fill-opacity:0; stroke-width: 2; stroke: #000000" points="747.21,257.184 739.541,265.32 740.168,259.765 736.1,255.931 "/>
  </g>
  <g>
    <line style="fill: none; fill-opacity:0; stroke-width: 2; stroke: #000000" x1="647.859" y1="312.443" x2="800.804" y2="311.845"/>
    <polygon style="fill: #000000" points="640.359,312.472 650.339,307.433 647.859,312.443 650.378,317.433 "/>
    <polygon style="fill: none; fill-opacity:0; stroke-width: 2; stroke: #000000" points="640.359,312.472 650.339,307.433 647.859,312.443 650.378,317.433 "/>
    <polygon style="fill: #000000" points="808.304,311.816 798.323,316.855 800.804,311.845 798.284,306.855 "/>
    <polygon style="fill: none; fill-opacity:0; stroke-width: 2; stroke: #000000" points="808.304,311.816 798.323,316.855 800.804,311.845 798.284,306.855 "/>
  </g>
  <g>
    <line style="fill: none; fill-opacity:0; stroke-width: 2; stroke: #000000" x1="647.193" y1="332.735" x2="758.883" y2="376.471"/>
    <polygon style="fill: #000000" points="640.209,330.001 651.344,328.991 647.193,332.735 647.698,338.303 "/>
    <polygon style="fill: none; fill-opacity:0; stroke-width: 2; stroke: #000000" points="640.209,330.001 651.344,328.991 647.193,332.735 647.698,338.303 "/>
    <polygon style="fill: #000000" points="765.867,379.206 754.732,380.215 758.883,376.471 758.378,370.904 "/>
    <polygon style="fill: none; fill-opacity:0; stroke-width: 2; stroke: #000000" points="765.867,379.206 754.732,380.215 758.883,376.471 758.378,370.904 "/>
  </g>
  <g>
    <line style="fill: none; fill-opacity:0; stroke-width: 2; stroke: #000000" x1="155.707" y1="314.66" x2="276.654" y2="314.4"/>
    <polygon style="fill: #000000" points="148.207,314.676 158.196,309.654 155.707,314.66 158.217,319.654 "/>
    <polygon style="fill: none; fill-opacity:0; stroke-width: 2; stroke: #000000" points="148.207,314.676 158.196,309.654 155.707,314.66 158.217,319.654 "/>
    <polygon style="fill: #000000" points="284.154,314.384 274.165,319.406 276.654,314.4 274.143,309.406 "/>
    <polygon style="fill: none; fill-opacity:0; stroke-width: 2; stroke: #000000" points="284.154,314.384 274.165,319.406 276.654,314.4 274.143,309.406 "/>
  </g>
  <g>
    <line style="fill: none; fill-opacity:0; stroke-width: 2; stroke: #000000" x1="208.078" y1="381.31" x2="283.745" y2="339.032"/>
    <polygon style="fill: #000000" points="201.53,384.968 207.821,375.726 208.078,381.31 212.699,384.456 "/>
    <polygon style="fill: none; fill-opacity:0; stroke-width: 2; stroke: #000000" points="201.53,384.968 207.821,375.726 208.078,381.31 212.699,384.456 "/>
    <polygon style="fill: #000000" points="290.293,335.374 284.002,344.617 283.745,339.032 279.124,335.887 "/>
    <polygon style="fill: none; fill-opacity:0; stroke-width: 2; stroke: #000000" points="290.293,335.374 284.002,344.617 283.745,339.032 279.124,335.887 "/>
  </g>
  <g>
    <line style="fill: none; fill-opacity:0; stroke-width: 2; stroke: #000000" x1="286.201" y1="289.291" x2="198.719" y2="237.005"/>
    <polygon style="fill: #000000" points="292.639,293.139 281.49,292.3 286.201,289.291 286.62,283.716 "/>
    <polygon style="fill: none; fill-opacity:0; stroke-width: 2; stroke: #000000" points="292.639,293.139 281.49,292.3 286.201,289.291 286.62,283.716 "/>
    <path style="fill: none; fill-opacity:0; stroke-width: 2; stroke: #000000" d="M 182.259,241.147 A 12,12 0 1 0 194.577,220.55"/>
  </g>
  <g>
    <line style="fill: none; fill-opacity:0; stroke-width: 2; stroke: #000000" x1="154.856" y1="207.771" x2="182" y2="226.654"/>
    <line style="fill: none; fill-opacity:0; stroke-width: 2; stroke: #000000" x1="138.438" y1="196.35" x2="141.722" y2="198.634"/>
    <line style="fill: none; fill-opacity:0; stroke-width: 2; stroke: #000000" x1="143.911" y1="200.157" x2="147.195" y2="202.441"/>
    <line style="fill: none; fill-opacity:0; stroke-width: 2; stroke: #000000" x1="149.384" y1="203.964" x2="152.667" y2="206.248"/>
    <path style="fill: #ffffff" d="M 193.493 234.648 C 191.494,237.522 186.622,238.396 183.749,236.397 C 180.876,234.399 180.001,229.527 182,226.654 C 183.999,223.78 188.87,222.906 191.744,224.905 C 194.617,226.903 195.491,231.775 193.493,234.648z"/>
    <path style="fill: none; fill-opacity:0; stroke-width: 2; stroke: #000000" d="M 193.493 234.648 C 191.494,237.522 186.622,238.396 183.749,236.397 C 180.876,234.399 180.001,229.527 182,226.654 C 183.999,223.78 188.87,222.906 191.744,224.905 C 194.617,226.903 195.491,231.775 193.493,234.648"/>
  </g>
  <text font-size="12.7998" style="fill: #000000;text-anchor:middle;font-family:sans-serif;font-style:normal;font-weight:normal" x="182.167" y="181.463">
    <tspan x="182.167" y="181.463">Application tierce</tspan>
    <tspan x="182.167" y="197.463">API</tspan>
  </text>
  <text font-size="12.7998" style="fill: #000000;text-anchor:start;font-family:sans-serif;font-style:normal;font-weight:normal" x="892.326" y="315.127">
    <tspan x="892.326" y="315.127">Utilisateurs</tspan>
  </text>
</svg>
